#!OML:ASF H:\Terrain\Patient Classification 1\Takeo\Monday\TakeoMonday.ASF
:FULLY-SPECIFIED
:DEGREES
459
root 10.192 17.7846 -0.274067 -6.63264 2.55062 0.70561
lowerback 4.18723 -0.709823 0.24145
upperback 0.603501 -0.932766 0.116232
thorax -1.7291 -0.466796 0.0360951
lowerneck -11.5927 -0.18075 -2.5834
upperneck 6.47662 -0.0763425 2.55521
head 4.2489 0.0252461 1.32792
rclavicle 1.15544e-015 -1.98785e-015
rhumerus -35.4443 0.275427 -88.1329
rradius 30.7779
rwrist -14.3474
rhand -28.1616 20.2806
rfingers 7.12502
rthumb -1.542 -9.69359
lclavicle 1.15544e-015 -1.98785e-015
lhumerus -36.8145 5.48021 86.9711
lradius 33.9229
lwrist 23.566
lhand -22.4344 20.9003
lfingers 7.12502
lthumb 3.98931 50.8427
rfemur 6.1914 5.32477 22.1704
rtibia 17.2289
rfoot -14.9413 -8.35591
rtoes 0.089954
lfemur 6.18166 -3.90745 -24.8902
ltibia 18.1897
lfoot -13.878 14.0398
ltoes -4.1328
460
root 10.1975 17.7787 -0.267626 -6.78001 2.54586 0.786803
lowerback 4.34522 -0.647709 0.169552
upperback 0.706667 -0.852833 0.121715
thorax -1.71038 -0.426378 0.0787263
lowerneck -11.2167 -0.253501 -3.08418
upperneck 5.8293 -0.133684 2.97006
head 3.94966 0.00380567 1.54616
rclavicle -6.57232e-015 9.54166e-015
rhumerus -35.4007 0.00251001 -87.8423
rradius 30.7659
rwrist -14.1325
rhand -28.1999 20.2648
rfingers 7.12502
rthumb -1.57896 -9.70906
lclavicle -6.57232e-015 9.54166e-015
lhumerus -36.6844 5.12682 87.3119
lradius 34.2878
lwrist 23.3918
lhand -22.4578 21.2067
lfingers 7.12502
lthumb 3.96667 51.1495
rfemur 6.32548 5.26119 22.061
rtibia 17.3502
rfoot -15.2805 -8.30001
rtoes -0.362261
lfemur 6.35928 -3.822 -24.9927
ltibia 18.1877
lfoot -13.8418 13.9388
ltoes -3.90175
461
root 10.1998 17.7731 -0.258953 -6.97989 2.43646 0.482157
lowerback 4.49323 -0.583423 0.427177
upperback 0.893262 -0.75179 0.292235
thorax -1.60266 -0.376747 0.103724
lowerneck -11.5458 -0.359524 -3.42752
upperneck 5.7065 -0.218604 3.04724
head 3.97828 -0.0404364 1.6311
rclavicle -3.42904e-015 -2.5842e-015
rhumerus -35.2005 0.225133 -87.6635
rradius 30.7103
rwrist -14.3796
rhand -28.4339 20.1117
rfingers 7.12502
rthumb -1.80494 -9.86044
lclavicle -3.42904e-015 -2.5842e-015
lhumerus -36.5434 4.99913 87.6534
lradius 34.7714
lwrist 23.3589
lhand -22.4278 20.9225
lfingers 7.12502
lthumb 3.99562 50.8648
rfemur 6.59517 5.37487 22.4518
rtibia 17.2854
rfoot -15.4384 -8.41254
rtoes -1.10368
lfemur 6.53103 -3.65767 -24.6458
ltibia 18.3473
lfoot -13.9081 13.8305
ltoes -4.16719
462
root 10.1997 17.7745 -0.253259 -6.96537 2.2507 0.258822
lowerback 4.48102 -0.547577 0.54848
upperback 0.974895 -0.696178 0.446682
thorax -1.51151 -0.34911 0.190206
lowerneck -11.9486 -0.344435 -3.5795
upperneck 5.79448 -0.165891 3.07562
head 4.09006 -0.0144854 1.67753
rclavicle -4.88265e-015 -6.55989e-015
rhumerus -35.0556 0.493417 -87.5939
rradius 30.6628
rwrist -14.5469
rhand -28.6638 19.687
rfingers 7.12502
rthumb -2.02701 -10.2831
lclavicle -4.88265e-015 -6.55989e-015
lhumerus -36.4987 5.16491 87.8371
lradius 35.249
lwrist 23.5927
lhand -22.4123 20.6425
lfingers 7.12502
lthumb 4.01064 50.5845
rfemur 6.6949 5.67042 22.7577
rtibia 17.0281
rfoot -15.4445 -8.60937
rtoes -0.406101
lfemur 6.36079 -3.63868 -24.3891
ltibia 18.6696
lfoot -14.1939 13.8371
ltoes -4.12447
463
root 10.206 17.773 -0.250743 -6.95329 2.09969 0.0471483
lowerback 4.47434 -0.550495 0.763515
upperback 1.00018 -0.688809 0.536586
thorax -1.48324 -0.34604 0.161191
lowerneck -12.6774 -0.420342 -2.83829
upperneck 6.81958 -0.297216 2.19911
head 4.10323 -0.0956704 1.11395
rclavicle 3.59055e-015 5.56597e-015
rhumerus -35.0604 0.34321 -87.4639
rradius 30.6396
rwrist -14.3135
rhand -28.72 19.7547
rfingers 7.12502
rthumb -2.08133 -10.2148
lclavicle 3.59055e-015 5.56597e-015
lhumerus -36.5175 5.56448 87.8119
lradius 35.5825
lwrist 23.567
lhand -22.2547 21.2
lfingers 7.12502
lthumb 4.16285 51.139
rfemur 6.84153 5.86898 22.9927
rtibia 16.6971
rfoot -15.4228 -8.64493
rtoes 1.22284
lfemur 6.1445 -3.69654 -24.1864
ltibia 19.0381
lfoot -14.3709 13.9902
ltoes -3.94831
464
root 10.2142 17.7731 -0.242595 -7.02824 2.01409 -0.198434
lowerback 4.48174 -0.58355 1.08909
upperback 1.06875 -0.71784 0.56839
thorax -1.42065 -0.361237 0.012573
lowerneck -14.5259 -0.557373 -0.904169
upperneck 8.64284 -0.533202 -0.294981
head 4.96185 -0.31261 0.00897087
rclavicle 3.23025e-016 -1.78906e-015
rhumerus -34.9936 0.265028 -87.4462
rradius 30.5389
rwrist -14.1848
rhand -28.7215 19.918
rfingers 7.12502
rthumb -2.08276 -10.0516
lclavicle 3.23025e-016 -1.78906e-015
lhumerus -36.5532 5.96405 87.6676
lradius 35.8813
lwrist 23.2247
lhand -22.1059 21.6991
lfingers 7.12502
lthumb 4.30653 51.6353
rfemur 7.10445 5.98384 23.253
rtibia 16.431
rfoot -15.3472 -8.58624
rtoes 2.62375
lfemur 6.10637 -3.71855 -23.9597
ltibia 19.3594
lfoot -14.6352 14.0698
ltoes -3.76072
465
root 10.2149 17.7803 -0.235501 -6.96254 1.89466 -0.29351
lowerback 4.36807 -0.571948 1.24383
upperback 1.13768 -0.698815 0.522628
thorax -1.28866 -0.351416 -0.123834
lowerneck -12.1649 -0.230098 -3.10983
upperneck 5.72017 -0.0469417 2.69823
head 4.0955 0.0383394 1.47174
rclavicle -6.55989e-015 5.96354e-015
rhumerus -34.7697 0.175668 -87.4976
rradius 30.3742
rwrist -14.1555
rhand -28.6766 19.4747
rfingers 7.12502
rthumb -2.0394 -10.4953
lclavicle -6.55989e-015 5.96354e-015
lhumerus -36.474 5.72914 87.6676
lradius 36.1974
lwrist 23.4228
lhand -22.2925 21.7163
lfingers 7.12502
lthumb 4.12627 51.6561
rfemur 7.15029 6.18572 23.3864
rtibia 16.244
rfoot -15.2007 -8.62342
rtoes 2.89081
lfemur 5.96403 -3.68153 -23.8338
ltibia 19.6171
lfoot -15.0139 13.9617
ltoes -2.90298
466
root 10.2152 17.7746 -0.231664 -6.96075 1.78831 -0.519587
lowerback 4.34198 -0.577263 1.51173
upperback 1.181 -0.694833 0.542309
thorax -1.23245 -0.34946 -0.254561
lowerneck -15.121 -0.422483 -0.450228
upperneck 8.85006 -0.3968 -0.62401
head 5.12145 -0.25462 -0.157524
rclavicle 3.24267e-015 5.56597e-015
rhumerus -34.6838 -0.0310226 -87.4339
rradius 30.2639
rwrist -13.9818
rhand -28.5291 19.1756
rfingers 7.12502
rthumb -1.89692 -10.7957
lclavicle 3.24267e-015 5.56597e-015
lhumerus -36.4221 5.15924 87.8308
lradius 36.4544
lwrist 24.138
lhand -22.5419 21.4547
lfingers 7.12502
lthumb 3.88543 51.399
rfemur 7.1866 6.23227 23.6616
rtibia 16.0908
rfoot -15.0863 -8.67178
rtoes 2.15874
lfemur 5.88811 -3.46897 -23.55
ltibia 19.8678
lfoot -15.1975 13.8449
ltoes -1.93843
467
root 10.2228 17.7651 -0.227065 -7.05754 1.76274 -0.649499
lowerback 4.49495 -0.653719 1.60015
upperback 1.19524 -0.788195 0.636954
thorax -1.30459 -0.396587 -0.200309
lowerneck -13.6387 -0.219213 -2.05552
upperneck 7.29731 -0.0691831 1.43117
head 4.39932 -0.00471087 0.769073
rclavicle 2.09966e-015 -5.56597e-015
rhumerus -34.6846 0.255849 -87.367
rradius 30.1653
rwrist -14.1538
rhand -28.4998 19.6688
rfingers 7.12502
rthumb -1.86866 -10.3027
lclavicle 2.09966e-015 -5.56597e-015
lhumerus -36.4688 5.09622 87.996
lradius 36.5963
lwrist 24.4529
lhand -22.5145 21.0589
lfingers 7.12502
lthumb 3.91196 51.0028
rfemur 7.31566 6.05542 23.7684
rtibia 15.9846
rfoot -15.0293 -8.62675
rtoes 0.930905
lfemur 5.91093 -3.37561 -23.4493
ltibia 20.1064
lfoot -15.1834 13.9431
ltoes -2.07894
468
root 10.2304 17.7633 -0.224667 -7.07325 1.72293 -0.674476
lowerback 4.64836 -0.689697 1.57215
upperback 1.11508 -0.830811 0.757085
thorax -1.47106 -0.419013 -0.0564212
lowerneck -13.103 -0.157346 -2.81415
upperneck 6.94087 0.0747107 2.05799
head 4.19972 0.0816106 1.09426
rclavicle -3.60297e-015 1.07344e-014
rhumerus -34.7148 0.508544 -87.21
rradius 29.9808
rwrist -14.4537
rhand -28.6261 19.8488
rfingers 7.12502
rthumb -1.99063 -10.1216
lclavicle -3.60297e-015 1.07344e-014
lhumerus -36.6181 5.18144 88.2054
lradius 36.6351
lwrist 24.4273
lhand -22.4382 21.3447
lfingers 7.12502
lthumb 3.98566 51.2872
rfemur 7.35453 5.94067 23.7499
rtibia 15.9331
rfoot -15.0045 -8.54128
rtoes 0.553577
lfemur 5.86842 -3.3765 -23.4482
ltibia 20.26
lfoot -15.1985 13.9937
ltoes -2.36236
469
root 10.2336 17.7622 -0.219955 -7.02518 1.72311 -0.776574
lowerback 4.69978 -0.674267 1.70918
upperback 0.956737 -0.798432 0.834951
thorax -1.6627 -0.404993 -0.0532961
lowerneck -12.8211 -0.265255 -3.10412
upperneck 7.14397 -0.0325569 2.09164
head 4.2195 0.0205846 1.14374
rclavicle -4.99446e-015 2.78299e-015
rhumerus -34.9576 0.258591 -86.943
rradius 29.8611
rwrist -14.3978
rhand -28.6785 19.5302
rfingers 7.12502
rthumb -2.04123 -10.4398
lclavicle -4.99446e-015 2.78299e-015
lhumerus -36.8594 5.00906 88.3836
lradius 36.6446
lwrist 24.431
lhand -22.4416 21.7357
lfingers 7.12502
lthumb 3.98232 51.6783
rfemur 7.37496 5.92438 23.8465
rtibia 15.8242
rfoot -15.0184 -8.52951
rtoes 0.680025
lfemur 5.77806 -3.35905 -23.3227
ltibia 20.3981
lfoot -15.5066 13.8233
ltoes -1.89457
470
root 10.2342 17.7655 -0.209447 -6.92891 1.76126 -0.680614
lowerback 4.64782 -0.733628 1.56235
upperback 0.864674 -0.885198 0.79975
thorax -1.72775 -0.448397 -0.00175508
lowerneck -12.8217 -0.230963 -2.95027
upperneck 7.32749 -0.0101409 2.0461
head 4.27554 0.0326301 1.10705
rclavicle -1.01256e-014 2.78299e-015
rhumerus -35.1075 0.22013 -86.9141
rradius 29.8169
rwrist -14.4035
rhand -28.6961 19.7844
rfingers 7.12502
rthumb -2.05819 -10.1854
lclavicle -1.01256e-014 2.78299e-015
lhumerus -36.9367 4.96575 88.3006
lradius 36.6381
lwrist 24.4759
lhand -22.3593 21.7014
lfingers 7.12502
lthumb 4.06179 51.6424
rfemur 7.44759 6.0431 23.7591
rtibia 15.5731
rfoot -14.9315 -8.62929
rtoes 0.88732
lfemur 5.61689 -3.50757 -23.4394
ltibia 20.615
lfoot -15.94 13.7087
ltoes -1.25005
471
root 10.2354 17.7696 -0.198743 -6.81446 1.68374 -0.789844
lowerback 4.54006 -0.841981 1.53926
upperback 0.861536 -1.03213 0.853901
thorax -1.67105 -0.521279 0.0740284
lowerneck -13.2028 -0.0674526 -2.59421
upperneck 7.55883 0.172767 1.872
head 4.40447 0.123383 1.01081
rclavicle -6.41081e-015 7.95139e-015
rhumerus -35.022 0.478544 -87.0052
rradius 29.7062
rwrist -14.4812
rhand -28.6769 20.1013
rfingers 7.12502
rthumb -2.03967 -9.86871
lclavicle -6.41081e-015 7.95139e-015
lhumerus -36.852 5.04828 88.1917
lradius 36.5987
lwrist 24.6846
lhand -22.3247 21.6694
lfingers 7.12502
lthumb 4.09519 51.6098
rfemur 7.49096 6.26837 23.9234
rtibia 15.2966
rfoot -14.775 -8.75662
rtoes 1.49306
lfemur 5.42864 -3.62334 -23.3251
ltibia 20.7972
lfoot -15.9377 13.7682
ltoes -2.20363
472
root 10.2389 17.7699 -0.18744 -6.75949 1.55572 -1.18359
lowerback 4.41923 -0.872256 1.89329
upperback 0.929266 -1.05708 1.02105
thorax -1.53742 -0.534045 0.0460328
lowerneck -13.5051 -0.0181671 -2.64898
upperneck 7.69261 0.250979 1.91116
head 4.49293 0.163452 1.03902
rclavicle 3.37934e-015 -4.37326e-015
rhumerus -34.8483 0.406455 -86.8412
rradius 29.5783
rwrist -14.2898
rhand -28.5298 19.821
rfingers 7.12502
rthumb -1.89762 -10.1503
lclavicle 3.37934e-015 -4.37326e-015
lhumerus -36.7646 4.95356 88.334
lradius 36.6373
lwrist 24.9282
lhand -22.4699 21.5969
lfingers 7.12502
lthumb 3.95504 51.5399
rfemur 7.55186 6.31064 24.3564
rtibia 15.0752
rfoot -14.6089 -8.70747
rtoes 2.21896
lfemur 5.32575 -3.58717 -22.888
ltibia 20.8774
lfoot -15.7184 13.846
ltoes -4.4768
473
root 10.2455 17.7693 -0.175954 -6.79516 1.54732 -1.21944
lowerback 4.33579 -0.887214 1.98049
upperback 1.04384 -1.07751 1.03292
thorax -1.37478 -0.54296 0.00793787
lowerneck -13.6913 -0.0196942 -2.93832
upperneck 7.71061 0.269363 2.25516
head 4.5274 0.186322 1.19464
rclavicle 1.28713e-014 -1.03368e-014
rhumerus -34.6223 0.0364277 -86.6662
rradius 29.4799
rwrist -14.0006
rhand -28.5219 19.7075
rfingers 7.12502
rthumb -1.88998 -10.2639
lclavicle 1.28713e-014 -1.03368e-014
lhumerus -36.7781 5.12541 88.3864
lradius 36.7714
lwrist 24.7091
lhand -22.6957 21.3571
lfingers 7.12502
lthumb 3.73692 51.3041
rfemur 7.73889 6.20349 24.3521
rtibia 14.8532
rfoot -14.4791 -8.60657
rtoes 2.88384
lfemur 5.31643 -3.50941 -22.8635
ltibia 20.965
lfoot -15.7664 13.9007
ltoes -4.82851
